<svg xmlns="http://www.w3.org/2000/svg" viewBox="0 0 1692 468"><defs><style>.cls-1{font-size:89px;font-family:BellMT, Bell MT;letter-spacing:0.26em;}.cls-1,.cls-5,.cls-6{fill:#312f2e;}.cls-2{letter-spacing:0.15em;}.cls-3{letter-spacing:0.26em;}.cls-4{fill:#0587ca;}.cls-5{font-size:374.19px;font-family:Consolas, Consolas;letter-spacing:0.2em;}</style></defs><title>Zwembad Totaal Logo</title><g id="Layer_1" data-name="Layer 1"><text class="cls-1" transform="translate(678.97 447.69)">ZWEMBAD &amp; S<tspan class="cls-2" x="875.46" y="0">P</tspan><tspan class="cls-3" x="943.79" y="0">A</tspan></text></g><g id="Layer_6" data-name="Layer 6"><rect class="cls-4" x="541.43" y="8.78" width="10.11" height="453.08" rx="2" ry="2"/></g><g id="Layer_2" data-name="Layer 2"><path class="cls-4" d="M195.89,228.66s98.78-5.2,117.49,65.5c0,0,5.2,22.87,4.16,32.23,0,0-1,121.64,88.37,124.76,0,0-46.78,17.68-98.77,0,0,0-59.26-12.47-62.38-120.6C244.76,330.55,250,239.05,195.89,228.66Z"/></g><g id="Layer_5" data-name="Layer 5"><text class="cls-5" transform="translate(656.72 251.5)">ROKE</text></g><g id="Layer_4" data-name="Layer 4"><path class="cls-6" d="M201.63,10.8c-1.2,0-2.39,0-3.57.09,25.81,16.09,44,50,44,109.13s-19.58,107.25-44,109.14c1.18,0,2.37.09,3.57.09a109.23,109.23,0,0,0,0-218.45Z"/></g><g id="Layer_3" data-name="Layer 3"><rect class="cls-4" x="17.56" y="8.78" width="72.82" height="449.03"/></g></svg>